<?xml version="1.0" encoding="UTF-8"?>
<svg width="56" height="56" viewBox="0 0 56 56" fill="none" xmlns="http://www.w3.org/2000/svg">
  <!-- Background -->
  <rect width="56" height="56" rx="4" fill="#E5E7EB"/>

  <!-- Music Note -->
  <path d="M35 20.5V34.5C35 36.9853 32.9853 39 30.5 39C28.0147 39 26 36.9853 26 34.5C26 32.0147 28.0147 30 30.5 30C31.0793 30 31.6293 30.1197 32.125 30.3352V23.875L24 26V36.5C24 38.9853 21.9853 41 19.5 41C17.0147 41 15 38.9853 15 36.5C15 34.0147 17.0147 32 19.5 32C20.0793 32 20.6293 32.1197 21.125 32.3352V22.5C21.125 21.6297 21.7046 20.8663 22.5391 20.6094L33.5391 17.6094C34.3736 17.3525 35.25 17.9578 35.25 18.8281L35 20.5Z" fill="#6B7280"/>
</svg>
